<svg width="223" height="54" viewBox="0 0 223 54" fill="none" xmlns="http://www.w3.org/2000/svg">
<path d="M215.395 2.54867C216.382 2.54867 217.354 2.10265 217.354 0H217.88V17.2673H217.354C217.354 8.02832 211.795 0.669027 203.241 0.669027C196.487 0.669027 192.727 5.17699 192.727 10.354C192.727 19.2106 203.464 20.4212 211.842 24.4035C217.242 26.9522 222.053 30.7752 222.053 38.3894C222.053 48.2973 214.088 54 204.627 54C197.044 54 193.142 50.623 189.765 50.623C189.399 50.5826 189.029 50.6248 188.682 50.7466C188.335 50.8684 188.02 51.0666 187.76 51.3266C187.5 51.5866 187.302 51.9018 187.18 52.2487C187.058 52.5956 187.016 52.9655 187.057 53.331H186.467V34.6301H187.057C186.98 37.0323 187.378 39.4261 188.229 41.6742C189.079 43.9222 190.364 45.9805 192.011 47.731C193.658 49.4815 195.634 50.8899 197.826 51.8754C200.018 52.861 202.383 53.4043 204.786 53.4743C211.54 53.4743 215.665 48.6 215.665 42.069C215.665 33.0531 207.701 31.0301 201.027 28.4655C191.469 24.7699 187.519 20.7239 187.519 13.954C187.519 5.09735 194.273 0 202.524 0C208.529 0 212.894 2.54867 215.363 2.54867M119.692 0.716814H101.214V1.38584H101.899C105.276 1.38584 106.471 2.51681 106.471 5.97345V48.154C106.471 51.6106 105.276 52.7257 101.899 52.7257H101.214V53.2832H119.692C135.319 53.2832 145.529 42.6903 145.529 26.9841C145.529 11.2779 135.319 0.716814 119.692 0.716814ZM119.389 52.6938H118.72C115.343 52.6938 114.133 51.5788 114.133 48.1221V6.00531C114.133 2.54867 115.343 1.4177 118.72 1.4177H119.389C133.28 1.4177 137.182 13.1416 137.182 27.0956C137.182 39.8389 133.996 52.7257 119.389 52.7257M183.823 34.7097H183.218C182.692 47.708 177.658 52.8053 165.696 52.8053H163.067C159.69 52.8053 158.48 51.6743 158.48 48.2177V25.9168H162.542C168.913 25.9168 172.975 28.6248 172.975 37.0673H173.581V14.9416H172.975C172.975 23.4159 168.929 25.2956 162.542 25.2956H158.48V6.06903C158.48 2.62832 159.69 1.49735 163.067 1.49735H165.696C175.604 1.49735 181.768 5.62301 181.768 17.4265H182.358V0.812389H145.72V1.49735H146.405C149.782 1.49735 150.977 2.62832 150.977 6.06903V48.2177C150.977 51.6743 149.782 52.8053 146.405 52.8053H145.72V53.4106H183.95L183.823 34.7097ZM75.8708 48.2177V41.1611C75.8708 28.6885 69.0372 25.4549 57.6319 25.3752L57.4726 25.5186H60.3398C67.2531 25.5186 76.6195 23.0177 76.6195 13.954C76.6195 4.89027 66.9345 0.716814 59.1292 0.716814H39.3133V1.38584H39.6796C43.0566 1.38584 44.2673 2.51681 44.2673 5.97345V48.154C44.2673 51.6106 43.0566 52.7257 39.6796 52.7257H39.0106V53.2832H57.5522V52.6779H56.4212C53.0442 52.6779 51.8496 51.5628 51.8496 48.1062V25.8053H56.8035C64.9911 25.8053 68.0655 27.5416 68.0655 38.8195V41.8938C68.1451 50.4637 70.6142 53.315 76.6195 53.315H79.9965V52.7097H79.1681C76.4602 52.7097 75.9823 50.9097 75.9823 48.2018M57.1062 25.2319H51.8496V6.00531C51.8496 2.54867 53.0442 1.4177 56.4212 1.4177H57.7752C65.5168 1.4177 69.1168 5.25664 69.1168 13.3646C69.1168 21.4726 65.4372 25.2319 57.1062 25.2319ZM21.6319 25.4549C29.023 25.3752 36.9876 22.2212 36.9876 13.6673C36.9876 5.49557 29.6602 0.716814 20.0549 0.716814H0V1.38584H0.669027C4.06195 1.38584 5.25664 2.51681 5.25664 5.97345V48.154C5.25664 51.6106 4.06195 52.7257 0.669027 52.7257H0V53.2832H21.0584C30.2177 53.2832 39.6796 49.9858 39.6796 39.9186C39.6796 29.8513 30.6159 25.9805 21.6319 25.4549ZM12.9186 25.2319V6.00531C12.9186 2.54867 14.1133 1.4177 17.4903 1.4177H18.6212C26.0602 1.4177 29.4372 5.09735 29.4372 13.285C29.4372 21.4726 26.0602 25.2319 18.7646 25.2319H12.9186ZM19.7522 52.7257H17.4903C14.1133 52.7257 12.9186 51.6106 12.9186 48.154V25.8531H18.7646C27.5575 25.8531 31.508 30.154 31.508 39.5522C31.508 48.6319 27.8283 52.7575 19.7204 52.7575M81.7009 53.2832H99.8761V52.6779H99.1911C95.8141 52.6779 94.6195 51.5628 94.6195 48.1062V6.00531C94.6195 2.54867 95.8141 1.4177 99.1911 1.4177H99.8761V0.716814H81.7009V1.38584H82.3699C85.7469 1.38584 86.9575 2.51681 86.9575 5.97345V48.154C86.9575 51.6106 85.7469 52.7257 82.3699 52.7257H81.7009V53.2832Z" fill="#C1C1C1"/>
</svg>
