<svg width="161" height="96" viewBox="0 0 161 96" fill="none" xmlns="http://www.w3.org/2000/svg">
<path d="M146.433 31.1614C146.433 29.2436 147.41 28.0971 149.315 28.0971C151.615 28.0971 152.101 29.9786 152.101 31.5557V37.9607L160.48 35.7V31.7936C160.48 24.8271 156.421 20.325 149.639 20.325C145.825 20.325 143.03 21.57 140.943 23.9271C139.015 26.0957 138.01 29.1428 138.01 32.7407C138.01 45.0086 151.921 54.5979 151.921 64.9628C151.921 67.29 150.85 68.4214 148.615 68.4214C146.536 68.4214 145.482 67.1786 145.482 64.725V57.7843L137.011 60.0493V64.4893C137.011 71.5607 141.235 75.9579 148.555 75.9579C151.756 75.9579 154.34 75.1007 156.427 73.2836C158.885 71.1279 160.345 68.355 160.345 64.3457C160.345 51.2443 146.433 41.9871 146.433 31.1614ZM125.857 21.2057L123.67 39.6193L122.247 56.2564L121.96 46.7336L118.93 21.2057H111.809L109.602 39.7971L108.194 56.2586L107.92 46.6543L104.898 21.2057H96.1338L103.325 75.075H112.087L114.772 54.3129L114.76 44.8264L115.747 52.6243L118.651 75.075H127.43L134.622 21.2057H125.857ZM58.4302 21.2057V39.7307L59.3067 52.17L56.7053 40.875L49.801 21.2057H42.0117V75.075H50.7781V57.6257H50.7674L49.8224 43.6736L51.3481 50.5864L59.9452 75.075H67.1967V21.2057H58.4302ZM81.7488 52.5236H90.1831V43.7593H81.7488V29.9721H91.1517L92.6002 21.2057H72.9845V75.0771H91.1517L92.6002 66.3107H81.7488V52.5236ZM3.22381 74.8393H27.0995V95.25H3.22381V74.8393ZM29.0838 13.8793L29.5402 0.75H0.83667L3.23453 68.8136H27.1488L27.6095 56.3636H16.1924V38.8736H28.2031L28.6081 27.3793H16.3681V13.8793H29.0838Z" fill="#C1C1C1"/>
</svg>
