<svg width="241" height="60" viewBox="0 0 241 60" fill="none" xmlns="http://www.w3.org/2000/svg">
<path fill-rule="evenodd" clip-rule="evenodd" d="M45.6618 47.8429H53.9281L53.8549 26.6484C53.8549 16.55 48.1711 11.3104 35.8452 11.3104C28.6849 11.3869 23.9607 14.085 22.0414 15.4723V12.3874H13.9222V47.8429H22.0414V23.8717C22.8539 23.024 27.8731 18.8622 35.5502 18.8622C43.7425 18.8622 45.6618 21.4831 45.6618 29.6524V47.8429ZM0.858429 47.8429H9.56902V1.75233H0.858429V47.8429ZM205.017 33.5834H240.667C240.595 18.2476 230.629 11.4641 218.229 11.3869C205.017 11.3104 196.16 19.0158 196.16 30.2699C196.16 41.5226 204.132 49.153 218.229 49.153C228.711 49.0758 234.542 46.6858 239.338 42.6776L235.132 36.8976C232.55 39.2105 228.119 41.6763 218.229 41.6763C212.619 41.7549 206.051 39.3656 205.017 33.5834ZM184.647 47.9194H192.839V1.75233H184.647V47.9194ZM157.114 59.25L182.136 12.3874H173.279L159.403 39.0561L146.043 12.3874H136.448L154.826 47.457L148.184 59.25H157.114ZM125.819 49.153C129.953 49.153 136.006 47.5342 136.006 47.5342L134.086 40.3662C134.086 40.3662 130.765 41.7549 127.369 41.7549C124.121 41.7549 123.014 40.9058 123.014 38.0533L122.94 19.4025H133.938V12.3874H122.94V3.14108H114.896V12.3874H109.139V19.4025H114.896V38.2077C114.896 46.1461 118.439 49.153 125.819 49.2288V49.153ZM85.593 49.2288C99.7643 49.2288 109.139 43.6804 109.139 33.7378C109.139 20.1737 92.1612 20.0965 82.9366 19.6333C79.8353 19.4797 67.5826 19.4797 67.5826 14.4687C67.5826 9.5379 76.8099 7.76538 83.0099 7.76538C92.1612 7.76538 99.47 10.6929 103.603 14.0071L107.883 7.76538C102.643 3.98729 94.819 0.751018 82.862 0.751018C69.7968 0.673089 59.0945 5.06652 59.0945 15.0863C59.0945 26.8793 74.8907 27.1109 82.9366 27.5726C86.9962 27.8806 100.946 27.263 100.946 33.9686C100.946 39.6736 93.6383 42.063 85.593 42.063C71.6422 42.063 63.8926 36.8211 61.9001 35.1243L57.5442 42.063C65.443 47.9194 73.8564 49.2288 85.593 49.2288ZM218.229 18.785C224.724 18.785 230.481 21.6367 231.442 26.7242H205.091C206.125 21.5602 211.66 18.785 218.229 18.785Z" fill="#C1C1C1"/>
</svg>
