<svg width="181" height="73" viewBox="0 0 181 73" fill="none" xmlns="http://www.w3.org/2000/svg">
<path fill-rule="evenodd" clip-rule="evenodd" d="M167.229 44.7836H179.571C178.019 63.5747 152.03 63.7245 149.759 48.8234V58.5261H131.839V48.7184C130.276 58.3079 124.789 59.6304 122.384 59.6237C120.367 59.6165 115.422 57.9585 113.595 52.9034L113.77 58.4069C113.807 61.8237 115.99 63.9862 118.308 64.2974V72.2432L97.398 72.25L97.3966 64.2974C99.1528 64.2485 101.967 62.5257 101.997 58.6908V44.2908C101.356 47.9111 98.6735 59.6185 85.8132 59.6185C73.069 59.6185 70.1865 47.2552 69.6402 45.4421C67.2597 58.9129 58.3024 59.6552 54.369 59.6057C47.304 59.5155 43.076 54.655 42.9709 54.5479C38.7209 50.2322 37.903 43.6952 38.0743 36.6469C38.0743 35.2287 38.4379 32.4711 38.565 31.1171C33.9937 36.0284 29.7562 35.4168 24.7273 35.6033L20.5013 35.5962V43.6485C20.4973 46.8885 21.6873 48.8266 25.3042 48.8527V58.539H0.472687V49.0557C4.08956 49.0289 5.32708 46.9159 5.32306 43.6759V14.9584C5.32373 14.2731 5.15507 9.83163 0.487402 9.79682V0.25H27.2832C32.3331 0.25 35.9246 1.78871 38.3413 3.69219C42.8116 7.21267 43.7031 13.2631 44.0658 17.7433C50.8934 11.8054 67.0689 10.4802 69.7767 28.2533C72.7002 14.7114 82.68 13.6861 85.0173 13.6767C89.2118 13.6613 96.3765 16.1959 98.7016 23.0468V14.6003H113.381V20.035C114.462 15.9336 118.083 13.7041 121.755 13.6827C125.295 13.6613 132.547 17.5934 134.408 32.5629V12.6299C134.392 9.75598 132.635 8.27217 129.76 8.28689L129.751 0.337683H146.833V32.5762C148.39 18.2942 156.359 13.7262 163.068 13.7256C169.88 13.7242 174.709 17.5238 177.184 22.3829C180.352 28.6007 180.126 35.1731 179.935 39.431L159.151 39.4365C159.077 40.2523 159.154 41.6237 159.218 42.8855C159.394 46.4214 160.557 49.6211 163.325 49.6064C165.58 49.6184 166.768 47.4768 167.229 44.7836ZM54.7605 49.6064C57.0141 49.6186 58.2041 47.5016 58.6638 44.807L69.4896 44.8023C68.9415 42.1009 68.8765 41.5328 68.8171 39.4331L50.5867 39.4365C50.5118 40.2523 50.5908 41.6237 50.6538 42.8855C50.829 46.4214 51.9916 49.6211 54.7605 49.6064ZM81.2832 36.7279C81.2832 43.8919 82.5709 49.6587 85.8037 49.7021C89.124 49.7451 90.3242 43.8919 90.3242 36.7279C90.3242 29.5617 89.037 23.7992 85.8037 23.7535C82.6587 23.7094 81.2832 29.5617 81.2832 36.7279ZM54.6855 23.4986C51.9167 23.4839 50.6664 26.8711 50.4911 30.407C50.4308 31.6065 50.4094 31.6607 50.4911 32.5548H58.7054C58.7871 31.6607 58.7648 31.6065 58.7054 30.407C58.5292 26.8711 57.4544 23.4839 54.6855 23.4986ZM163.248 23.7603C160.479 23.7456 159.316 26.8711 159.14 30.407C159.081 31.6065 159.059 31.6607 159.14 32.5548H167.355C167.437 31.6607 167.415 31.6065 167.355 30.407C167.18 26.8711 166.017 23.7456 163.248 23.7603ZM114.159 43.2482C114.159 46.8516 115.046 49.5891 117.572 49.5891C120.395 49.5891 122.081 45.7628 122.081 36.7673C122.081 26.8907 120.558 23.5013 117.904 23.3847C115.336 23.2724 114.025 25.4563 114.159 29.9619V43.2482ZM20.5428 24.7496H24.0252C27.1775 24.6618 28.2773 22.761 28.2773 17.9395C28.2773 13.5542 26.7378 11.2759 24.0252 11.2759H20.5428V24.7496Z" fill="#C1C1C1"/>
</svg>
